<?xml version="1.0" encoding="utf-8"?>
<!-- Generator: Adobe Illustrator 19.1.0, SVG Export Plug-In . SVG Version: 6.00 Build 0)  -->
<svg version="1.1" id="Layer_1" xmlns="http://www.w3.org/2000/svg" xmlns:xlink="http://www.w3.org/1999/xlink" x="0px" y="0px"
	 viewBox="0 0 800 432" enable-background="new 0 0 800 432" xml:space="preserve">
<path fill="#5E5F5F" d="M142.8,374.3c0,0,17.2-8.2,34.6-22.4c8.3-6.8,16.8-15.2,23.2-24.5c8.3,11.8,19.2,23.5,30.4,34.4
	c26.6,25.7,56.3,47.6,56.3,47.6s-17.5-17-34.9-38.7c-17.4-21.9-35.2-49.6-36.3-73.1c-1.2-25.4,23.6-64.9,54.4-105
	c38.4-50,85.4-100.2,85.4-100.2s-51.8,45.4-96.9,92c-26.5,27.4-50.1,54.6-63.2,77.2c-14.8-21-37.5-43.4-58.3-61.9
	c-27.9-24.8-52-41.7-52-41.7s22.3,21.2,45.9,50c23.5,28.7,47.6,63.3,50,87.2c2.2,22.2-9.1,43.8-19.7,58.3
	C152.1,366.3,142.8,374.3,142.8,374.3z"/>
<text transform="matrix(1 0 0 1 282.3564 243.9116)"><tspan x="0" y="0" fill="#194789" font-family="'arial'" font-size="85.1426px" letter-spacing="-1">Open Data </tspan><tspan x="0" y="102.7" fill="#71BF44" font-family="arial" font-size="85.1426px" letter-spacing="-1">&amp; Rural India</tspan></text>
<path fill="#71BF44" d="M102.5,112.8c0,0-17.1,28,14.2,49.2C116.7,162,136.3,122.8,102.5,112.8z"/>
<path fill="#194789" d="M90.2,175.4c0,0-22.1-24.2-51.2-0.1C39,175.3,71.2,205,90.2,175.4z"/>
<path fill="#194789" d="M323.6,62.3c0,0-27.5,17.9-8.4,50.5C315.2,112.8,349.8,85.9,323.6,62.3z"/>
<path fill="#194789" d="M371,36.6c0,0-27.5,17.9-8.4,50.5C362.6,87.1,397.1,60.2,371,36.6z"/>
<path fill="#194789" d="M395.6,109c0,0-27.3-18.2-49.7,12.3C345.8,121.3,384.3,142.4,395.6,109z"/>
<path fill="#71BF44" d="M164.9,19.4c0,0-25.6,20.4-3.5,51.1C161.4,70.5,193.2,40.3,164.9,19.4z"/>
<path fill="#71BF44" d="M190.1,75.1c0,0-30.9,10.9-20.1,47.1C170,122.2,209.9,104.2,190.1,75.1z"/>
<path fill="#71BF44" d="M123,66c0,0-7.4,31.9,29,42.2C152,108.2,158.2,64.9,123,66z"/>
<path fill="#71BF44" d="M238.1,64.3c0,0-25.6,20.4-3.5,51.1C234.7,115.4,266.5,85.2,238.1,64.3z"/>
<path fill="#71BF44" d="M263.3,120.1c0,0-30.9,10.9-20.1,47.1C243.3,167.2,283.2,149.2,263.3,120.1z"/>
<path fill="#71BF44" d="M196.2,111c0,0-7.4,31.9,29,42.2C225.2,153.2,231.4,109.8,196.2,111z"/>
<path fill="#71BF44" d="M187.6,139.1c0,0-25.6,20.4-3.5,51.1C184.1,190.1,215.9,160,187.6,139.1z"/>
<path fill="#194789" d="M212.7,180.9c0,0-30.9,10.9-20.1,47.1C192.7,228,232.6,210,212.7,180.9z"/>
<path fill="#194789" d="M145.6,171.8c0,0-7.4,31.9,29,42.2C174.6,214,180.8,170.6,145.6,171.8z"/>
<path fill="#194789" d="M57.3,104.2c0,0-10.6,31,24.6,44.9C81.9,149.1,92.4,106.6,57.3,104.2z"/>
</svg>
